<?xml version="1.0" encoding="utf-8"?>
<!-- Generator: Adobe Illustrator 17.1.0, SVG Export Plug-In . SVG Version: 6.00 Build 0)  -->
<!DOCTYPE svg PUBLIC "-//W3C//DTD SVG 1.1//EN" "http://www.w3.org/Graphics/SVG/1.1/DTD/svg11.dtd">
<svg version="1.1" id="Layer_1" xmlns="http://www.w3.org/2000/svg" xmlns:xlink="http://www.w3.org/1999/xlink" x="0px" y="0px"
	 viewBox="0 498.7 1200.7 202.4" enable-background="new 0 498.7 1200.7 202.4" xml:space="preserve">
<g id="XMLID_1_">
	<g id="XMLID_235_">
		<g id="XMLID_236_">
			<g>
				<g id="XMLID_237_">
					<g id="XMLID_241_">
						<path id="XMLID_242_" fill="#FFFFFF" d="M101.1,701.1V662c41.8,0,73.4-41.1,57.9-84.9c-6.1-16.2-18.9-29-35-35
							c-43.8-15.5-84.9,16.2-84.9,57.9l0,0H0c0-66,64-117.9,133.4-96.4c30.3,9.4,54.6,33.7,64,64C219,637.1,167.1,701.1,101.1,701.1
							z"/>
					</g>
					<polygon id="XMLID_240_" fill="#FFFFFF" points="101.1,662 62,662 62,622.9 62,622.9 101.1,622.9 101.1,622.9 					"/>
					<polygon id="XMLID_239_" fill="#FFFFFF" points="62,692.3 32.3,692.3 32.3,692.3 32.3,662 62,662 					"/>
					<polygon id="XMLID_238_" fill="#FFFFFF" points="32.3,662 6.7,662 6.7,662 6.7,637.1 6.7,637.1 32.3,637.1 32.3,637.1 					"/>
				</g>
			</g>
		</g>
	</g>
	<g id="XMLID_2_">
		<path id="XMLID_16_" fill="#FFFFFF" d="M359.8,557.6c-11.5-8.1-26.3-12.1-43.1-12.1h-36.4v115.9h36.4c16.8,0,31-4,43.1-12.8
			c6.1-4.7,11.5-10.8,14.8-18.9c3.4-8.1,5.4-16.8,5.4-27.6c0-10.1-2-19.5-5.4-27S366.5,561.6,359.8,557.6z M301.9,565h11.5
			c12.8,0,23.6,2.7,31.7,7.4c8.8,5.4,13.5,15.5,13.5,30.3c0,15.5-4.7,25.6-13.5,31.7l0,0c-7.4,4.7-18.2,7.4-31,7.4h-12.1L301.9,565
			L301.9,565z"/>
		<path id="XMLID_15_" fill="#FFFFFF" d="M405.6,544.1c-3.4,0-6.7,1.3-8.8,3.4c-2.7,2.7-4,5.4-4,8.8c0,3.4,1.3,6.7,4,8.8
			c2.7,2.7,5.4,4,8.8,4s6.7-1.3,8.8-4c2.7-2.7,4-5.4,4-8.8c0-3.4-1.3-6.7-4-8.8C412.4,545.4,409,544.1,405.6,544.1z"/>
		<rect id="XMLID_14_" x="394.8" y="579.8" fill="#FFFFFF" width="20.9" height="82.2"/>
		<path id="XMLID_13_" fill="#FFFFFF" d="M490.5,586.5c-6.1-5.4-13.5-8.8-20.9-8.8c-11.5,0-20.9,4-28.3,11.5
			c-7.4,7.4-10.8,17.5-10.8,29.6c0,11.5,3.4,21.6,10.8,29.6c7.4,7.4,16.8,11.5,28.3,11.5c8.1,0,14.8-2,20.2-6.7v2
			c0,6.7-2,12.1-5.4,15.5c-3.4,3.4-8.8,5.4-14.8,5.4c-9.4,0-15.5-4-22.9-13.5l-14.1,13.5l0.7,0.7c2.7,4,7.4,8.1,13.5,12.1
			c6.1,4,13.5,6.1,22.9,6.1c12.1,0,22.2-4,29.6-11.5s10.8-17.5,10.8-29.6v-74.1h-20.2L490.5,586.5L490.5,586.5z M485.1,635
			c-3.4,4-8.1,6.1-14.1,6.1s-10.8-2-14.1-6.1s-5.4-9.4-5.4-16.2s2-12.1,5.4-16.2s8.1-6.1,14.1-6.1s10.8,2,14.1,6.1s5.4,9.4,5.4,16.2
			S488.5,631,485.1,635z"/>
		<rect id="XMLID_12_" x="528.2" y="579.8" fill="#FFFFFF" width="20.9" height="82.2"/>
		<path id="XMLID_11_" fill="#FFFFFF" d="M539,544.1c-3.4,0-6.7,1.3-8.8,3.4c-2.7,2.7-4,5.4-4,8.8c0,3.4,1.3,6.7,4,8.8
			c2.7,2.7,5.4,4,8.8,4s6.7-1.3,8.8-4c2.7-2.7,4-5.4,4-8.8c0-3.4-1.3-6.7-4-8.8C545.8,545.4,542.4,544.1,539,544.1z"/>
		<path id="XMLID_10_" fill="#FFFFFF" d="M594.3,557.6h-20.2v22.2h-12.1v18.9h12.1v33.7c0,10.8,2,18.2,6.1,22.9
			c4,4.7,11.5,6.7,22.2,6.7c3.4,0,6.7,0,10.1-0.7h0.7v-18.9l-6.7,0.7c-4.7,0-8.1-0.7-10.1-2.7c-1.3-2-2.7-5.4-2.7-10.8v-31h19.5
			v-18.9h-18.9V557.6L594.3,557.6z"/>
		<rect id="XMLID_9_" x="709.5" y="545.4" fill="#FFFFFF" width="20.9" height="115.9"/>
		<path id="XMLID_8_" fill="#FFFFFF" d="M938.6,632.3c-3.4,4-7.4,8.1-10.1,9.4l0,0c-2.7,2-6.1,2.7-10.8,2.7c-6.1,0-10.8-2-14.8-6.7
			c-4-4.7-6.1-10.1-6.1-17.5c0-7.4,2-12.8,6.1-17.5c4-4.7,8.8-6.7,14.8-6.7c6.7,0,13.5,4,19.5,11.5l13.5-12.8l0,0
			c-8.8-11.5-20.2-16.8-33.7-16.8c-11.5,0-20.9,4-29,12.1s-12.1,18.2-12.1,30.3c0,12.1,4,22.2,12.1,30.3c8.1,8.1,17.5,12.1,29,12.1
			c14.8,0,27-6.1,35-18.2L938.6,632.3z"/>
		<path id="XMLID_7_" fill="#FFFFFF" d="M1022.8,591.2c-2.7-4-6.7-7.4-12.1-10.1c-4.7-2.7-10.8-3.4-16.8-3.4
			c-11.5,0-20.9,4-28.3,12.8c-6.7,8.1-10.1,18.9-10.1,31s4,22.9,11.5,30.3c7.4,8.1,17.5,12.1,29.6,12.1c13.5,0,25.6-5.4,33.7-16.8
			l0.7-0.7l-13.5-12.8l0,0c-1.3,1.3-2.7,3.4-4.7,4.7c-2,2-4,3.4-6.1,4.7c-2.7,1.3-6.7,2-10.1,2c-6.1,0-10.1-1.3-14.1-4.7
			c-3.4-2.7-5.4-7.4-6.1-12.1h54.6v-7.4c0-5.4-0.7-10.1-2-15.5C1028.2,600,1026.2,595.3,1022.8,591.2z M978.3,610.1
			c0.7-4,2.7-7.4,5.4-10.1s6.1-4,10.8-4c4.7,0,8.8,1.3,11.5,4s4,6.1,4,9.4L978.3,610.1L978.3,610.1z"/>
		<path id="XMLID_6_" fill="#FFFFFF" d="M1102.3,585.9L1102.3,585.9c-6.1-5.4-14.8-8.1-25.6-8.1c-6.7,0-13.5,1.3-18.9,4.7
			c-5.4,2.7-10.8,7.4-14.1,13.5l0,0l13.5,12.8c5.4-8.8,11.5-11.5,19.5-11.5c4.7,0,8.1,1.3,10.8,3.4c2.7,2,4,5.4,4,8.8v4
			c-5.4-1.3-10.1-2.7-15.5-2.7c-10.1,0-18.9,2.7-24.9,7.4c-6.1,4.7-9.4,12.1-9.4,20.2c0,7.4,2.7,14.1,8.1,18.9
			c5.4,4.7,12.1,6.7,19.5,6.7s15.5-3.4,21.6-8.8v6.7h20.2v-52.6C1111.7,598.7,1109,591.2,1102.3,585.9z M1065.9,630.3
			c2.7-1.3,5.4-2.7,10.1-2.7s10.1,0.7,15.5,2.7v8.1c-4.7,4-10.1,6.1-17.5,6.1c-3.4,0-6.1-0.7-8.1-2.7c-2-1.3-2.7-3.4-2.7-6.1
			C1062.5,633.7,1063.2,631.7,1065.9,630.3z"/>
		<path id="XMLID_5_" fill="#FFFFFF" d="M1191.2,587.2c-6.1-6.1-13.5-9.4-24.3-9.4c-8.1,0-14.8,2.7-19.5,6.7v-4.7h-20.2V662h20.9
			v-45.1c0-6.1,1.3-11.5,4.7-14.8c2.7-3.4,6.7-5.4,12.1-5.4c4.7,0,8.1,1.3,10.8,4.7c2.7,3.4,4,7.4,4,12.8v47.2h20.9v-47.2
			C1200,602.7,1196.6,593.9,1191.2,587.2z"/>
		<path id="XMLID_4_" fill="#FFFFFF" d="M683.9,585.9L683.9,585.9c-6.1-5.4-14.8-8.1-25.6-8.1c-6.7,0-13.5,1.3-18.9,4.7
			c-5.4,2.7-10.8,7.4-14.1,13.5l0,0l13.5,12.8c5.4-8.8,11.5-11.5,19.5-11.5c4.7,0,8.1,1.3,10.8,3.4c2.7,2,4,5.4,4,8.8v4
			c-5.4-1.3-10.1-2.7-15.5-2.7c-10.1,0-18.9,2.7-24.9,7.4c-6.1,4.7-9.4,12.1-9.4,20.2c0,7.4,2.7,14.1,8.1,18.9
			c5.4,4.7,12.1,6.7,19.5,6.7c8.1,0,15.5-3.4,21.6-8.8v6.7h20.2v-52.6C693.3,598.7,689.9,591.2,683.9,585.9z M647.5,630.3
			c2.7-1.3,5.4-2.7,10.1-2.7s10.1,0.7,15.5,2.7v8.1c-4.7,4-10.1,6.1-17.5,6.1c-3.4,0-6.1-0.7-8.1-2.7c-2-1.3-2.7-3.4-2.7-6.1
			C644.1,633.7,644.8,631.7,647.5,630.3z"/>
		<path id="XMLID_3_" fill="#FFFFFF" d="M805.2,663.3c-33,0-60-27-60-60s27-60,60-60c33,0,60,27,60,60S838.2,663.3,805.2,663.3z
			 M805.2,564.3c-21.6,0-39.1,17.5-39.1,39.1s17.5,39.1,39.1,39.1c21.6,0,39.1-17.5,39.1-39.1S826.7,564.3,805.2,564.3z"/>
	</g>
</g>
</svg>
